<mxfile host="Electron" agent="Mozilla/5.0 (Windows NT 10.0; Win64; x64) AppleWebKit/537.36 (KHTML, like Gecko) draw.io/27.0.5 Chrome/134.0.6998.205 Electron/35.3.0 Safari/537.36" version="27.0.5">
  <diagram name="Página-1" id="imqD01M5zrtMZavtxSDU">
    <mxGraphModel dx="1603" dy="1015" grid="1" gridSize="10" guides="1" tooltips="1" connect="1" arrows="1" fold="1" page="1" pageScale="1" pageWidth="1169" pageHeight="827" math="0" shadow="0">
      <root>
        <mxCell id="0" />
        <mxCell id="1" parent="0" />
        <mxCell id="xyCPjFLZ7RANjCCAETmr-10" style="edgeStyle=orthogonalEdgeStyle;rounded=0;orthogonalLoop=1;jettySize=auto;html=1;exitX=0.5;exitY=0;exitDx=0;exitDy=0;endArrow=none;startFill=0;" parent="1" source="xyCPjFLZ7RANjCCAETmr-1" target="xyCPjFLZ7RANjCCAETmr-2" edge="1">
          <mxGeometry relative="1" as="geometry" />
        </mxCell>
        <mxCell id="xyCPjFLZ7RANjCCAETmr-11" style="edgeStyle=orthogonalEdgeStyle;rounded=0;orthogonalLoop=1;jettySize=auto;html=1;exitX=0.25;exitY=0;exitDx=0;exitDy=0;endArrow=none;startFill=0;" parent="1" source="xyCPjFLZ7RANjCCAETmr-1" target="xyCPjFLZ7RANjCCAETmr-3" edge="1">
          <mxGeometry relative="1" as="geometry" />
        </mxCell>
        <mxCell id="xyCPjFLZ7RANjCCAETmr-12" style="edgeStyle=orthogonalEdgeStyle;rounded=0;orthogonalLoop=1;jettySize=auto;html=1;exitX=0;exitY=0.25;exitDx=0;exitDy=0;entryX=1;entryY=0.5;entryDx=0;entryDy=0;endArrow=none;startFill=0;" parent="1" source="xyCPjFLZ7RANjCCAETmr-1" target="xyCPjFLZ7RANjCCAETmr-4" edge="1">
          <mxGeometry relative="1" as="geometry" />
        </mxCell>
        <mxCell id="xyCPjFLZ7RANjCCAETmr-13" style="edgeStyle=orthogonalEdgeStyle;rounded=0;orthogonalLoop=1;jettySize=auto;html=1;exitX=0;exitY=0.75;exitDx=0;exitDy=0;entryX=1;entryY=0.5;entryDx=0;entryDy=0;endArrow=none;startFill=0;" parent="1" source="xyCPjFLZ7RANjCCAETmr-1" target="xyCPjFLZ7RANjCCAETmr-6" edge="1">
          <mxGeometry relative="1" as="geometry" />
        </mxCell>
        <mxCell id="xyCPjFLZ7RANjCCAETmr-14" style="edgeStyle=orthogonalEdgeStyle;rounded=0;orthogonalLoop=1;jettySize=auto;html=1;exitX=0.25;exitY=1;exitDx=0;exitDy=0;entryX=1;entryY=0.5;entryDx=0;entryDy=0;endArrow=none;startFill=0;" parent="1" source="xyCPjFLZ7RANjCCAETmr-1" target="xyCPjFLZ7RANjCCAETmr-7" edge="1">
          <mxGeometry relative="1" as="geometry" />
        </mxCell>
        <mxCell id="xyCPjFLZ7RANjCCAETmr-15" style="edgeStyle=orthogonalEdgeStyle;rounded=0;orthogonalLoop=1;jettySize=auto;html=1;exitX=0.5;exitY=1;exitDx=0;exitDy=0;entryX=1;entryY=0;entryDx=0;entryDy=0;endArrow=none;startFill=0;" parent="1" source="xyCPjFLZ7RANjCCAETmr-1" target="xyCPjFLZ7RANjCCAETmr-8" edge="1">
          <mxGeometry relative="1" as="geometry" />
        </mxCell>
        <mxCell id="xyCPjFLZ7RANjCCAETmr-44" style="edgeStyle=orthogonalEdgeStyle;rounded=0;orthogonalLoop=1;jettySize=auto;html=1;exitX=1;exitY=0.5;exitDx=0;exitDy=0;entryX=0;entryY=0.5;entryDx=0;entryDy=0;endArrow=none;startFill=0;" parent="1" source="xyCPjFLZ7RANjCCAETmr-1" target="xyCPjFLZ7RANjCCAETmr-43" edge="1">
          <mxGeometry relative="1" as="geometry">
            <Array as="points">
              <mxPoint x="270" y="185" />
            </Array>
          </mxGeometry>
        </mxCell>
        <mxCell id="xyCPjFLZ7RANjCCAETmr-1" value="Cliente" style="whiteSpace=wrap;html=1;align=center;" parent="1" vertex="1">
          <mxGeometry x="160" y="165" width="100" height="40" as="geometry" />
        </mxCell>
        <mxCell id="xyCPjFLZ7RANjCCAETmr-2" value="Id" style="ellipse;whiteSpace=wrap;html=1;align=center;fontStyle=4;" parent="1" vertex="1">
          <mxGeometry x="230" y="75" width="100" height="40" as="geometry" />
        </mxCell>
        <mxCell id="xyCPjFLZ7RANjCCAETmr-3" value="Nombre" style="ellipse;whiteSpace=wrap;html=1;align=center;" parent="1" vertex="1">
          <mxGeometry x="90" y="55" width="100" height="40" as="geometry" />
        </mxCell>
        <mxCell id="xyCPjFLZ7RANjCCAETmr-4" value="Apellido" style="ellipse;whiteSpace=wrap;html=1;align=center;" parent="1" vertex="1">
          <mxGeometry x="10" y="105" width="100" height="40" as="geometry" />
        </mxCell>
        <mxCell id="xyCPjFLZ7RANjCCAETmr-6" value="Dirección" style="ellipse;whiteSpace=wrap;html=1;align=center;" parent="1" vertex="1">
          <mxGeometry x="10" y="165" width="100" height="40" as="geometry" />
        </mxCell>
        <mxCell id="xyCPjFLZ7RANjCCAETmr-7" value="Teléfono" style="ellipse;whiteSpace=wrap;html=1;align=center;" parent="1" vertex="1">
          <mxGeometry x="10" y="225" width="100" height="40" as="geometry" />
        </mxCell>
        <mxCell id="xyCPjFLZ7RANjCCAETmr-8" value="Correo_Electrónico" style="ellipse;whiteSpace=wrap;html=1;align=center;" parent="1" vertex="1">
          <mxGeometry x="120" y="265" width="120" height="40" as="geometry" />
        </mxCell>
        <mxCell id="xyCPjFLZ7RANjCCAETmr-16" style="edgeStyle=orthogonalEdgeStyle;rounded=0;orthogonalLoop=1;jettySize=auto;html=1;exitX=0.5;exitY=0;exitDx=0;exitDy=0;endArrow=none;startFill=0;" parent="1" source="xyCPjFLZ7RANjCCAETmr-22" target="xyCPjFLZ7RANjCCAETmr-23" edge="1">
          <mxGeometry relative="1" as="geometry" />
        </mxCell>
        <mxCell id="xyCPjFLZ7RANjCCAETmr-17" style="edgeStyle=orthogonalEdgeStyle;rounded=0;orthogonalLoop=1;jettySize=auto;html=1;exitX=0.25;exitY=0;exitDx=0;exitDy=0;endArrow=none;startFill=0;" parent="1" source="xyCPjFLZ7RANjCCAETmr-22" target="xyCPjFLZ7RANjCCAETmr-24" edge="1">
          <mxGeometry relative="1" as="geometry" />
        </mxCell>
        <mxCell id="xyCPjFLZ7RANjCCAETmr-18" style="edgeStyle=orthogonalEdgeStyle;rounded=0;orthogonalLoop=1;jettySize=auto;html=1;exitX=0;exitY=0.25;exitDx=0;exitDy=0;entryX=1;entryY=0.5;entryDx=0;entryDy=0;endArrow=none;startFill=0;" parent="1" source="xyCPjFLZ7RANjCCAETmr-22" target="xyCPjFLZ7RANjCCAETmr-25" edge="1">
          <mxGeometry relative="1" as="geometry" />
        </mxCell>
        <mxCell id="xyCPjFLZ7RANjCCAETmr-19" style="edgeStyle=orthogonalEdgeStyle;rounded=0;orthogonalLoop=1;jettySize=auto;html=1;exitX=0;exitY=0.75;exitDx=0;exitDy=0;entryX=1;entryY=0.5;entryDx=0;entryDy=0;endArrow=none;startFill=0;" parent="1" source="xyCPjFLZ7RANjCCAETmr-22" target="xyCPjFLZ7RANjCCAETmr-26" edge="1">
          <mxGeometry relative="1" as="geometry" />
        </mxCell>
        <mxCell id="xyCPjFLZ7RANjCCAETmr-20" style="edgeStyle=orthogonalEdgeStyle;rounded=0;orthogonalLoop=1;jettySize=auto;html=1;exitX=0.5;exitY=1;exitDx=0;exitDy=0;entryX=1;entryY=0.5;entryDx=0;entryDy=0;endArrow=none;startFill=0;" parent="1" source="xyCPjFLZ7RANjCCAETmr-22" target="xyCPjFLZ7RANjCCAETmr-27" edge="1">
          <mxGeometry relative="1" as="geometry" />
        </mxCell>
        <mxCell id="xyCPjFLZ7RANjCCAETmr-21" style="edgeStyle=orthogonalEdgeStyle;rounded=0;orthogonalLoop=1;jettySize=auto;html=1;exitX=0.75;exitY=1;exitDx=0;exitDy=0;entryX=1;entryY=0;entryDx=0;entryDy=0;endArrow=none;startFill=0;" parent="1" source="xyCPjFLZ7RANjCCAETmr-22" target="xyCPjFLZ7RANjCCAETmr-28" edge="1">
          <mxGeometry relative="1" as="geometry">
            <Array as="points">
              <mxPoint x="760" y="295" />
              <mxPoint x="760" y="315" />
              <mxPoint x="790" y="315" />
              <mxPoint x="790" y="395" />
            </Array>
          </mxGeometry>
        </mxCell>
        <mxCell id="xyCPjFLZ7RANjCCAETmr-22" value="Producto" style="whiteSpace=wrap;html=1;align=center;" parent="1" vertex="1">
          <mxGeometry x="680" y="255" width="100" height="40" as="geometry" />
        </mxCell>
        <mxCell id="xyCPjFLZ7RANjCCAETmr-23" value="Id" style="ellipse;whiteSpace=wrap;html=1;align=center;fontStyle=4;" parent="1" vertex="1">
          <mxGeometry x="800" y="170" width="100" height="40" as="geometry" />
        </mxCell>
        <mxCell id="xyCPjFLZ7RANjCCAETmr-24" value="Nombre" style="ellipse;whiteSpace=wrap;html=1;align=center;" parent="1" vertex="1">
          <mxGeometry x="610" y="145" width="100" height="40" as="geometry" />
        </mxCell>
        <mxCell id="xyCPjFLZ7RANjCCAETmr-25" value="Precio" style="ellipse;whiteSpace=wrap;html=1;align=center;" parent="1" vertex="1">
          <mxGeometry x="530" y="195" width="100" height="40" as="geometry" />
        </mxCell>
        <mxCell id="xyCPjFLZ7RANjCCAETmr-26" value="Existencia" style="ellipse;whiteSpace=wrap;html=1;align=center;" parent="1" vertex="1">
          <mxGeometry x="530" y="255" width="100" height="40" as="geometry" />
        </mxCell>
        <mxCell id="xyCPjFLZ7RANjCCAETmr-27" value="Descripción" style="ellipse;whiteSpace=wrap;html=1;align=center;" parent="1" vertex="1">
          <mxGeometry x="650" y="355" width="100" height="40" as="geometry" />
        </mxCell>
        <mxCell id="xyCPjFLZ7RANjCCAETmr-28" value="Color" style="ellipse;whiteSpace=wrap;html=1;align=center;" parent="1" vertex="1">
          <mxGeometry x="750" y="389" width="100" height="40" as="geometry" />
        </mxCell>
        <mxCell id="xyCPjFLZ7RANjCCAETmr-29" style="edgeStyle=orthogonalEdgeStyle;rounded=0;orthogonalLoop=1;jettySize=auto;html=1;exitX=1;exitY=0.5;exitDx=0;exitDy=0;endArrow=none;startFill=0;" parent="1" source="xyCPjFLZ7RANjCCAETmr-35" target="xyCPjFLZ7RANjCCAETmr-36" edge="1">
          <mxGeometry relative="1" as="geometry" />
        </mxCell>
        <mxCell id="xyCPjFLZ7RANjCCAETmr-30" style="edgeStyle=orthogonalEdgeStyle;rounded=0;orthogonalLoop=1;jettySize=auto;html=1;exitX=0.25;exitY=0;exitDx=0;exitDy=0;endArrow=none;startFill=0;" parent="1" source="xyCPjFLZ7RANjCCAETmr-35" target="xyCPjFLZ7RANjCCAETmr-37" edge="1">
          <mxGeometry relative="1" as="geometry" />
        </mxCell>
        <mxCell id="xyCPjFLZ7RANjCCAETmr-31" style="edgeStyle=orthogonalEdgeStyle;rounded=0;orthogonalLoop=1;jettySize=auto;html=1;exitX=0;exitY=0.25;exitDx=0;exitDy=0;entryX=1;entryY=0.5;entryDx=0;entryDy=0;endArrow=none;startFill=0;" parent="1" source="xyCPjFLZ7RANjCCAETmr-35" target="xyCPjFLZ7RANjCCAETmr-38" edge="1">
          <mxGeometry relative="1" as="geometry" />
        </mxCell>
        <mxCell id="xyCPjFLZ7RANjCCAETmr-33" style="edgeStyle=orthogonalEdgeStyle;rounded=0;orthogonalLoop=1;jettySize=auto;html=1;exitX=0.75;exitY=1;exitDx=0;exitDy=0;entryX=0;entryY=0.5;entryDx=0;entryDy=0;endArrow=none;startFill=0;" parent="1" source="xyCPjFLZ7RANjCCAETmr-35" target="xyCPjFLZ7RANjCCAETmr-40" edge="1">
          <mxGeometry relative="1" as="geometry" />
        </mxCell>
        <mxCell id="xyCPjFLZ7RANjCCAETmr-35" value="Pedido" style="whiteSpace=wrap;html=1;align=center;" parent="1" vertex="1">
          <mxGeometry x="190" y="565" width="100" height="40" as="geometry" />
        </mxCell>
        <mxCell id="xyCPjFLZ7RANjCCAETmr-36" value="Id" style="ellipse;whiteSpace=wrap;html=1;align=center;fontStyle=4;" parent="1" vertex="1">
          <mxGeometry x="350" y="525" width="100" height="40" as="geometry" />
        </mxCell>
        <mxCell id="xyCPjFLZ7RANjCCAETmr-37" value="Total_Pago" style="ellipse;whiteSpace=wrap;html=1;align=center;" parent="1" vertex="1">
          <mxGeometry x="60" y="495" width="100" height="40" as="geometry" />
        </mxCell>
        <mxCell id="xyCPjFLZ7RANjCCAETmr-38" value="Efectivo_o_tarjeta" style="ellipse;whiteSpace=wrap;html=1;align=center;" parent="1" vertex="1">
          <mxGeometry x="10" y="575" width="120" height="40" as="geometry" />
        </mxCell>
        <mxCell id="xyCPjFLZ7RANjCCAETmr-40" value="Total_Productos" style="ellipse;whiteSpace=wrap;html=1;align=center;" parent="1" vertex="1">
          <mxGeometry x="370" y="615" width="100" height="40" as="geometry" />
        </mxCell>
        <mxCell id="xyCPjFLZ7RANjCCAETmr-45" style="edgeStyle=orthogonalEdgeStyle;rounded=0;orthogonalLoop=1;jettySize=auto;html=1;exitX=1;exitY=0.5;exitDx=0;exitDy=0;entryX=0.5;entryY=0;entryDx=0;entryDy=0;endArrow=none;startFill=0;" parent="1" source="xyCPjFLZ7RANjCCAETmr-43" target="xyCPjFLZ7RANjCCAETmr-35" edge="1">
          <mxGeometry relative="1" as="geometry">
            <Array as="points">
              <mxPoint x="410" y="265" />
              <mxPoint x="410" y="465" />
              <mxPoint x="240" y="465" />
            </Array>
          </mxGeometry>
        </mxCell>
        <mxCell id="xyCPjFLZ7RANjCCAETmr-43" value="Relación" style="shape=rhombus;perimeter=rhombusPerimeter;whiteSpace=wrap;html=1;align=center;" parent="1" vertex="1">
          <mxGeometry x="270" y="210" width="120" height="60" as="geometry" />
        </mxCell>
        <mxCell id="xyCPjFLZ7RANjCCAETmr-46" value="1" style="text;strokeColor=none;fillColor=none;spacingLeft=4;spacingRight=4;overflow=hidden;rotatable=0;points=[[0,0.5],[1,0.5]];portConstraint=eastwest;fontSize=12;whiteSpace=wrap;html=1;" parent="1" vertex="1">
          <mxGeometry x="270" y="265" width="40" height="30" as="geometry" />
        </mxCell>
        <mxCell id="xyCPjFLZ7RANjCCAETmr-48" value="N" style="text;strokeColor=none;fillColor=none;spacingLeft=4;spacingRight=4;overflow=hidden;rotatable=0;points=[[0,0.5],[1,0.5]];portConstraint=eastwest;fontSize=12;whiteSpace=wrap;html=1;" parent="1" vertex="1">
          <mxGeometry x="380" y="265" width="40" height="30" as="geometry" />
        </mxCell>
        <mxCell id="xyCPjFLZ7RANjCCAETmr-50" style="edgeStyle=orthogonalEdgeStyle;rounded=0;orthogonalLoop=1;jettySize=auto;html=1;exitX=0;exitY=0.5;exitDx=0;exitDy=0;entryX=0.75;entryY=0;entryDx=0;entryDy=0;endArrow=none;startFill=0;" parent="1" source="xyCPjFLZ7RANjCCAETmr-49" target="xyCPjFLZ7RANjCCAETmr-35" edge="1">
          <mxGeometry relative="1" as="geometry">
            <Array as="points">
              <mxPoint x="440" y="255" />
              <mxPoint x="440" y="485" />
              <mxPoint x="265" y="485" />
            </Array>
          </mxGeometry>
        </mxCell>
        <mxCell id="xyCPjFLZ7RANjCCAETmr-51" style="edgeStyle=orthogonalEdgeStyle;rounded=0;orthogonalLoop=1;jettySize=auto;html=1;exitX=1;exitY=0.5;exitDx=0;exitDy=0;entryX=0.25;entryY=1;entryDx=0;entryDy=0;endArrow=none;startFill=0;" parent="1" source="xyCPjFLZ7RANjCCAETmr-49" target="xyCPjFLZ7RANjCCAETmr-22" edge="1">
          <mxGeometry relative="1" as="geometry">
            <Array as="points">
              <mxPoint x="630" y="395" />
              <mxPoint x="630" y="325" />
              <mxPoint x="705" y="325" />
            </Array>
          </mxGeometry>
        </mxCell>
        <mxCell id="xyCPjFLZ7RANjCCAETmr-49" value="Relación" style="shape=rhombus;perimeter=rhombusPerimeter;whiteSpace=wrap;html=1;align=center;" parent="1" vertex="1">
          <mxGeometry x="480" y="365" width="120" height="60" as="geometry" />
        </mxCell>
        <mxCell id="xyCPjFLZ7RANjCCAETmr-54" value="N" style="text;strokeColor=none;fillColor=none;spacingLeft=4;spacingRight=4;overflow=hidden;rotatable=0;points=[[0,0.5],[1,0.5]];portConstraint=eastwest;fontSize=12;whiteSpace=wrap;html=1;" parent="1" vertex="1">
          <mxGeometry x="490" y="355" width="40" height="30" as="geometry" />
        </mxCell>
        <mxCell id="xyCPjFLZ7RANjCCAETmr-55" value="M" style="text;strokeColor=none;fillColor=none;spacingLeft=4;spacingRight=4;overflow=hidden;rotatable=0;points=[[0,0.5],[1,0.5]];portConstraint=eastwest;fontSize=12;whiteSpace=wrap;html=1;" parent="1" vertex="1">
          <mxGeometry x="590" y="365" width="40" height="30" as="geometry" />
        </mxCell>
        <mxCell id="xyCPjFLZ7RANjCCAETmr-63" style="edgeStyle=orthogonalEdgeStyle;rounded=0;orthogonalLoop=1;jettySize=auto;html=1;exitX=0;exitY=0.5;exitDx=0;exitDy=0;entryX=1;entryY=1;entryDx=0;entryDy=0;endArrow=none;startFill=0;" parent="1" source="xyCPjFLZ7RANjCCAETmr-56" target="xyCPjFLZ7RANjCCAETmr-49" edge="1">
          <mxGeometry relative="1" as="geometry" />
        </mxCell>
        <mxCell id="xyCPjFLZ7RANjCCAETmr-56" value="&lt;span style=&quot;border-bottom: 1px dotted&quot;&gt;Id_Producto&lt;/span&gt;" style="ellipse;whiteSpace=wrap;html=1;align=center;" parent="1" vertex="1">
          <mxGeometry x="590" y="419" width="100" height="40" as="geometry" />
        </mxCell>
        <mxCell id="xyCPjFLZ7RANjCCAETmr-64" style="edgeStyle=orthogonalEdgeStyle;rounded=0;orthogonalLoop=1;jettySize=auto;html=1;exitX=0;exitY=0.5;exitDx=0;exitDy=0;entryX=0.5;entryY=1;entryDx=0;entryDy=0;endArrow=none;startFill=0;" parent="1" source="xyCPjFLZ7RANjCCAETmr-62" target="xyCPjFLZ7RANjCCAETmr-49" edge="1">
          <mxGeometry relative="1" as="geometry" />
        </mxCell>
        <mxCell id="xyCPjFLZ7RANjCCAETmr-62" value="&lt;span style=&quot;border-bottom: 1px dotted&quot;&gt;Id_Pedido&lt;/span&gt;" style="ellipse;whiteSpace=wrap;html=1;align=center;" parent="1" vertex="1">
          <mxGeometry x="590" y="465" width="100" height="40" as="geometry" />
        </mxCell>
        <mxCell id="xyCPjFLZ7RANjCCAETmr-67" style="edgeStyle=orthogonalEdgeStyle;rounded=0;orthogonalLoop=1;jettySize=auto;html=1;exitX=0.5;exitY=0;exitDx=0;exitDy=0;entryX=0.25;entryY=1;entryDx=0;entryDy=0;endArrow=none;startFill=0;" parent="1" source="xyCPjFLZ7RANjCCAETmr-65" target="xyCPjFLZ7RANjCCAETmr-35" edge="1">
          <mxGeometry relative="1" as="geometry" />
        </mxCell>
        <mxCell id="xyCPjFLZ7RANjCCAETmr-65" value="&lt;span style=&quot;border-bottom: 1px dotted&quot;&gt;Id_Cliente&lt;/span&gt;" style="ellipse;whiteSpace=wrap;html=1;align=center;" parent="1" vertex="1">
          <mxGeometry x="185" y="655" width="100" height="40" as="geometry" />
        </mxCell>
        <mxCell id="LOJ8JT2x4fSzI2Ahi3I2-1" style="edgeStyle=orthogonalEdgeStyle;rounded=0;orthogonalLoop=1;jettySize=auto;html=1;exitX=0.5;exitY=0;exitDx=0;exitDy=0;endArrow=none;startFill=0;" parent="1" source="LOJ8JT2x4fSzI2Ahi3I2-8" target="LOJ8JT2x4fSzI2Ahi3I2-9" edge="1">
          <mxGeometry relative="1" as="geometry" />
        </mxCell>
        <mxCell id="LOJ8JT2x4fSzI2Ahi3I2-2" style="edgeStyle=orthogonalEdgeStyle;rounded=0;orthogonalLoop=1;jettySize=auto;html=1;exitX=0.25;exitY=0;exitDx=0;exitDy=0;endArrow=none;startFill=0;" parent="1" source="LOJ8JT2x4fSzI2Ahi3I2-8" target="LOJ8JT2x4fSzI2Ahi3I2-10" edge="1">
          <mxGeometry relative="1" as="geometry" />
        </mxCell>
        <mxCell id="LOJ8JT2x4fSzI2Ahi3I2-3" style="edgeStyle=orthogonalEdgeStyle;rounded=0;orthogonalLoop=1;jettySize=auto;html=1;exitX=0;exitY=0.25;exitDx=0;exitDy=0;entryX=1;entryY=0.5;entryDx=0;entryDy=0;endArrow=none;startFill=0;" parent="1" source="LOJ8JT2x4fSzI2Ahi3I2-8" target="LOJ8JT2x4fSzI2Ahi3I2-11" edge="1">
          <mxGeometry relative="1" as="geometry" />
        </mxCell>
        <mxCell id="LOJ8JT2x4fSzI2Ahi3I2-5" style="edgeStyle=orthogonalEdgeStyle;rounded=0;orthogonalLoop=1;jettySize=auto;html=1;exitX=0.25;exitY=1;exitDx=0;exitDy=0;entryX=1;entryY=0.5;entryDx=0;entryDy=0;endArrow=none;startFill=0;" parent="1" source="LOJ8JT2x4fSzI2Ahi3I2-8" target="LOJ8JT2x4fSzI2Ahi3I2-13" edge="1">
          <mxGeometry relative="1" as="geometry" />
        </mxCell>
        <mxCell id="LOJ8JT2x4fSzI2Ahi3I2-6" style="edgeStyle=orthogonalEdgeStyle;rounded=0;orthogonalLoop=1;jettySize=auto;html=1;exitX=0.5;exitY=1;exitDx=0;exitDy=0;entryX=1;entryY=0;entryDx=0;entryDy=0;endArrow=none;startFill=0;" parent="1" source="LOJ8JT2x4fSzI2Ahi3I2-8" target="LOJ8JT2x4fSzI2Ahi3I2-14" edge="1">
          <mxGeometry relative="1" as="geometry" />
        </mxCell>
        <mxCell id="LOJ8JT2x4fSzI2Ahi3I2-17" style="edgeStyle=orthogonalEdgeStyle;rounded=0;orthogonalLoop=1;jettySize=auto;html=1;exitX=0.75;exitY=1;exitDx=0;exitDy=0;startArrow=none;startFill=0;endArrow=none;" parent="1" source="LOJ8JT2x4fSzI2Ahi3I2-8" target="LOJ8JT2x4fSzI2Ahi3I2-16" edge="1">
          <mxGeometry relative="1" as="geometry" />
        </mxCell>
        <mxCell id="LOJ8JT2x4fSzI2Ahi3I2-8" value="Usuarios" style="whiteSpace=wrap;html=1;align=center;" parent="1" vertex="1">
          <mxGeometry x="620" y="635" width="100" height="40" as="geometry" />
        </mxCell>
        <mxCell id="LOJ8JT2x4fSzI2Ahi3I2-9" value="Id" style="ellipse;whiteSpace=wrap;html=1;align=center;fontStyle=4;" parent="1" vertex="1">
          <mxGeometry x="690" y="545" width="100" height="40" as="geometry" />
        </mxCell>
        <mxCell id="LOJ8JT2x4fSzI2Ahi3I2-10" value="Nombre" style="ellipse;whiteSpace=wrap;html=1;align=center;" parent="1" vertex="1">
          <mxGeometry x="500" y="562.5" width="100" height="40" as="geometry" />
        </mxCell>
        <mxCell id="LOJ8JT2x4fSzI2Ahi3I2-11" value="Apellido" style="ellipse;whiteSpace=wrap;html=1;align=center;" parent="1" vertex="1">
          <mxGeometry x="480" y="642.5" width="100" height="40" as="geometry" />
        </mxCell>
        <mxCell id="LOJ8JT2x4fSzI2Ahi3I2-13" value="Teléfono" style="ellipse;whiteSpace=wrap;html=1;align=center;" parent="1" vertex="1">
          <mxGeometry x="470" y="695" width="100" height="40" as="geometry" />
        </mxCell>
        <mxCell id="LOJ8JT2x4fSzI2Ahi3I2-14" value="Correo_Electrónico" style="ellipse;whiteSpace=wrap;html=1;align=center;" parent="1" vertex="1">
          <mxGeometry x="580" y="735" width="120" height="40" as="geometry" />
        </mxCell>
        <mxCell id="LOJ8JT2x4fSzI2Ahi3I2-16" value="Rol" style="ellipse;whiteSpace=wrap;html=1;align=center;fontStyle=0;" parent="1" vertex="1">
          <mxGeometry x="720" y="740" width="100" height="40" as="geometry" />
        </mxCell>
        <mxCell id="LOJ8JT2x4fSzI2Ahi3I2-20" style="edgeStyle=orthogonalEdgeStyle;rounded=0;orthogonalLoop=1;jettySize=auto;html=1;exitX=0.5;exitY=0;exitDx=0;exitDy=0;entryX=1;entryY=0.5;entryDx=0;entryDy=0;endArrow=none;startFill=0;" parent="1" source="LOJ8JT2x4fSzI2Ahi3I2-19" target="xyCPjFLZ7RANjCCAETmr-22" edge="1">
          <mxGeometry relative="1" as="geometry">
            <Array as="points">
              <mxPoint x="860" y="602" />
              <mxPoint x="860" y="275" />
            </Array>
          </mxGeometry>
        </mxCell>
        <mxCell id="LOJ8JT2x4fSzI2Ahi3I2-21" style="edgeStyle=orthogonalEdgeStyle;rounded=0;orthogonalLoop=1;jettySize=auto;html=1;exitX=0.5;exitY=1;exitDx=0;exitDy=0;entryX=1;entryY=0.5;entryDx=0;entryDy=0;endArrow=none;startFill=0;" parent="1" source="LOJ8JT2x4fSzI2Ahi3I2-19" target="LOJ8JT2x4fSzI2Ahi3I2-8" edge="1">
          <mxGeometry relative="1" as="geometry" />
        </mxCell>
        <mxCell id="LOJ8JT2x4fSzI2Ahi3I2-19" value="Relationship" style="shape=rhombus;perimeter=rhombusPerimeter;whiteSpace=wrap;html=1;align=center;" parent="1" vertex="1">
          <mxGeometry x="810" y="602.5" width="120" height="60" as="geometry" />
        </mxCell>
        <mxCell id="LOJ8JT2x4fSzI2Ahi3I2-22" value="N" style="text;html=1;align=center;verticalAlign=middle;whiteSpace=wrap;rounded=0;" parent="1" vertex="1">
          <mxGeometry x="860" y="582.5" width="60" height="30" as="geometry" />
        </mxCell>
        <mxCell id="LOJ8JT2x4fSzI2Ahi3I2-23" value="1" style="text;html=1;align=center;verticalAlign=middle;whiteSpace=wrap;rounded=0;" parent="1" vertex="1">
          <mxGeometry x="860" y="652.5" width="60" height="30" as="geometry" />
        </mxCell>
        <mxCell id="z7quWA_YRG-0DKhi06jU-12" style="edgeStyle=orthogonalEdgeStyle;rounded=0;orthogonalLoop=1;jettySize=auto;html=1;exitX=1;exitY=0.5;exitDx=0;exitDy=0;endArrow=none;startFill=0;" edge="1" parent="1" source="z7quWA_YRG-0DKhi06jU-16" target="z7quWA_YRG-0DKhi06jU-17">
          <mxGeometry relative="1" as="geometry" />
        </mxCell>
        <mxCell id="z7quWA_YRG-0DKhi06jU-13" style="edgeStyle=orthogonalEdgeStyle;rounded=0;orthogonalLoop=1;jettySize=auto;html=1;exitX=0.25;exitY=0;exitDx=0;exitDy=0;endArrow=none;startFill=0;" edge="1" parent="1" source="z7quWA_YRG-0DKhi06jU-16" target="z7quWA_YRG-0DKhi06jU-18">
          <mxGeometry relative="1" as="geometry">
            <Array as="points">
              <mxPoint x="955" y="40" />
            </Array>
          </mxGeometry>
        </mxCell>
        <mxCell id="z7quWA_YRG-0DKhi06jU-14" style="edgeStyle=orthogonalEdgeStyle;rounded=0;orthogonalLoop=1;jettySize=auto;html=1;exitX=0;exitY=0.25;exitDx=0;exitDy=0;entryX=1;entryY=0.5;entryDx=0;entryDy=0;endArrow=none;startFill=0;" edge="1" parent="1" source="z7quWA_YRG-0DKhi06jU-16" target="z7quWA_YRG-0DKhi06jU-19">
          <mxGeometry relative="1" as="geometry" />
        </mxCell>
        <mxCell id="z7quWA_YRG-0DKhi06jU-16" value="Categoria" style="whiteSpace=wrap;html=1;align=center;" vertex="1" parent="1">
          <mxGeometry x="930" y="70" width="100" height="40" as="geometry" />
        </mxCell>
        <mxCell id="z7quWA_YRG-0DKhi06jU-17" value="Id" style="ellipse;whiteSpace=wrap;html=1;align=center;fontStyle=4;" vertex="1" parent="1">
          <mxGeometry x="1040" y="120" width="100" height="40" as="geometry" />
        </mxCell>
        <mxCell id="z7quWA_YRG-0DKhi06jU-18" value="Nombre" style="ellipse;whiteSpace=wrap;html=1;align=center;" vertex="1" parent="1">
          <mxGeometry x="770" y="20" width="100" height="40" as="geometry" />
        </mxCell>
        <mxCell id="z7quWA_YRG-0DKhi06jU-19" value="Descripción" style="ellipse;whiteSpace=wrap;html=1;align=center;" vertex="1" parent="1">
          <mxGeometry x="750" y="105" width="120" height="40" as="geometry" />
        </mxCell>
        <mxCell id="z7quWA_YRG-0DKhi06jU-27" style="edgeStyle=orthogonalEdgeStyle;rounded=0;orthogonalLoop=1;jettySize=auto;html=1;exitX=0.5;exitY=0;exitDx=0;exitDy=0;entryX=0.5;entryY=1;entryDx=0;entryDy=0;endArrow=none;startFill=0;" edge="1" parent="1" source="z7quWA_YRG-0DKhi06jU-26" target="z7quWA_YRG-0DKhi06jU-16">
          <mxGeometry relative="1" as="geometry" />
        </mxCell>
        <mxCell id="z7quWA_YRG-0DKhi06jU-28" style="edgeStyle=orthogonalEdgeStyle;rounded=0;orthogonalLoop=1;jettySize=auto;html=1;exitX=0.5;exitY=1;exitDx=0;exitDy=0;entryX=0.75;entryY=0;entryDx=0;entryDy=0;endArrow=none;startFill=0;" edge="1" parent="1" source="z7quWA_YRG-0DKhi06jU-26" target="xyCPjFLZ7RANjCCAETmr-22">
          <mxGeometry relative="1" as="geometry">
            <Array as="points">
              <mxPoint x="1040" y="315" />
              <mxPoint x="880" y="315" />
              <mxPoint x="880" y="250" />
              <mxPoint x="755" y="250" />
            </Array>
          </mxGeometry>
        </mxCell>
        <mxCell id="z7quWA_YRG-0DKhi06jU-26" value="Relación" style="shape=rhombus;perimeter=rhombusPerimeter;whiteSpace=wrap;html=1;align=center;" vertex="1" parent="1">
          <mxGeometry x="980" y="235" width="120" height="60" as="geometry" />
        </mxCell>
        <mxCell id="z7quWA_YRG-0DKhi06jU-29" value="1" style="text;html=1;align=center;verticalAlign=middle;whiteSpace=wrap;rounded=0;" vertex="1" parent="1">
          <mxGeometry x="1030" y="205" width="60" height="30" as="geometry" />
        </mxCell>
        <mxCell id="z7quWA_YRG-0DKhi06jU-30" value="N" style="text;html=1;align=center;verticalAlign=middle;whiteSpace=wrap;rounded=0;" vertex="1" parent="1">
          <mxGeometry x="1030" y="295" width="60" height="30" as="geometry" />
        </mxCell>
      </root>
    </mxGraphModel>
  </diagram>
</mxfile>
